<?xml version="1.0" standalone="no"?>
<!DOCTYPE svg PUBLIC "-//W3C//DTD SVG 20010904//EN"
 "http://www.w3.org/TR/2001/REC-SVG-20010904/DTD/svg10.dtd">
<svg version="1.0" xmlns="http://www.w3.org/2000/svg"
 width="32.000000pt" height="32.000000pt" viewBox="0 0 32.000000 32.000000"
 preserveAspectRatio="xMidYMid meet">

<g transform="translate(0.000000,32.000000) scale(0.100000,-0.100000)"
fill="#000000" stroke="none">
<path d="M85 300 c-10 -11 -21 -17 -25 -15 -4 3 -13 -2 -20 -10 -7 -8 -9 -15
-4 -15 4 0 -3 -12 -17 -27 l-24 -28 26 22 25 23 31 -33 c17 -17 33 -39 36 -47
3 -8 6 -1 6 15 1 39 32 61 61 43 12 -8 20 -24 21 -43 0 -16 3 -23 6 -15 3 8
19 30 36 47 l31 33 25 -23 26 -22 -23 26 c-12 14 -20 28 -17 31 3 3 -1 11 -10
18 -8 7 -15 9 -15 4 0 -4 -12 3 -27 17 -27 23 -27 23 1 -9 18 -19 24 -32 16
-32 -7 0 -21 -7 -31 -16 -14 -13 -20 -13 -38 -2 -17 11 -25 11 -42 0 -18 -11
-24 -11 -38 2 -10 9 -24 16 -31 16 -8 0 -2 12 15 30 16 17 26 30 23 30 -3 0
-13 -9 -23 -20z m-30 -30 c-3 -5 8 -16 25 -25 16 -8 30 -23 30 -32 0 -13 -9
-8 -35 17 -29 28 -37 50 -19 50 3 0 3 -4 -1 -10z m219 2 c3 -5 -10 -24 -29
-42 -26 -25 -35 -30 -35 -17 0 9 14 24 30 32 17 9 28 20 25 25 -4 6 -4 10 -1
10 3 0 7 -4 10 -8z"/>
<path d="M121 140 c0 -8 -15 -29 -33 -47 l-32 -33 -30 28 -31 27 24 -27 c14
-16 21 -28 17 -28 -5 0 -3 -7 4 -15 7 -9 15 -13 18 -10 3 3 17 -5 31 -17 l26
-23 -20 23 c-19 23 -19 24 0 38 24 18 106 18 130 0 19 -14 19 -15 0 -38 l-20
-23 26 23 c14 12 28 20 31 17 3 -3 11 1 18 10 7 8 9 15 4 15 -4 0 3 12 17 27
l24 28 -31 -27 -30 -28 -32 33 c-18 18 -33 39 -33 47 -1 8 -4 -1 -8 -20 -5
-29 -10 -35 -31 -35 -21 0 -26 6 -31 35 -4 19 -7 28 -8 20z m-1 -44 c0 -20
-67 -58 -76 -44 -4 6 -3 8 3 5 5 -4 23 7 38 23 33 34 35 35 35 16z m155 -39
c4 5 5 3 1 -4 -9 -16 -76 23 -76 45 0 11 10 7 33 -16 18 -18 37 -29 42 -25z"/>
</g>
</svg>
